<svg width="54" height="31" viewBox="0 0 54 31" fill="none" xmlns="http://www.w3.org/2000/svg">
<g filter="url(#filter0_d_10928_7490)">
<mask id="path-1-inside-1_10928_7490" fill="white">
<path d="M48.4805 19.8984H36.5742L36.5703 15.8984H36.5742V0H41.999V15.8984H48.4805V19.8984Z"/>
</mask>
<path d="M48.4805 19.8984H36.5742L36.5703 15.8984H36.5742V0H41.999V15.8984H48.4805V19.8984Z" fill="url(#paint0_linear_10928_7490)"/>
<path d="M48.4805 19.8984V20.8984H49.4805V19.8984H48.4805ZM36.5742 19.8984L35.5742 19.8994L35.5752 20.8984H36.5742V19.8984ZM36.5703 15.8984V14.8984H35.5693L35.5703 15.8994L36.5703 15.8984ZM36.5742 15.8984V16.8984H37.5742V15.8984H36.5742ZM36.5742 0V-1H35.5742V0H36.5742ZM41.999 0H42.999V-1H41.999V0ZM41.999 15.8984H40.999V16.8984H41.999V15.8984ZM48.4805 15.8984H49.4805V14.8984H48.4805V15.8984ZM48.4805 19.8984V18.8984H36.5742V19.8984V20.8984H48.4805V19.8984ZM36.5742 19.8984L37.5742 19.8975L37.5703 15.8975L36.5703 15.8984L35.5703 15.8994L35.5742 19.8994L36.5742 19.8984ZM36.5703 15.8984V16.8984H36.5742V15.8984V14.8984H36.5703V15.8984ZM36.5742 15.8984H37.5742V0H36.5742H35.5742V15.8984H36.5742ZM36.5742 0V1H41.999V0V-1H36.5742V0ZM41.999 0H40.999V15.8984H41.999H42.999V0H41.999ZM41.999 15.8984V16.8984H48.4805V15.8984V14.8984H41.999V15.8984ZM48.4805 15.8984H47.4805V19.8984H48.4805H49.4805V15.8984H48.4805Z" fill="url(#paint1_linear_10928_7490)" mask="url(#path-1-inside-1_10928_7490)"/>
<mask id="path-3-inside-2_10928_7490" fill="white">
<path d="M30.041 0C31.6942 2.41143e-05 32.862 0.351135 33.5439 1.05371C34.2466 1.75633 34.5976 2.68653 34.5977 3.84375V9.54785C34.5977 10.7051 34.2465 11.6352 33.5439 12.3379C32.862 13.0405 31.6943 13.3916 30.041 13.3916H26.3779V19.9023H20.9531V0H30.041ZM26.3779 9.5166H28.3975C28.6661 9.5166 28.8633 9.46564 28.9873 9.3623C29.1113 9.23831 29.1729 9.06225 29.1729 8.83496V4.55664C29.1728 4.32952 29.1112 4.16383 28.9873 4.06055C28.8633 3.93655 28.6661 3.875 28.3975 3.875H26.3779V9.5166Z"/>
</mask>
<path d="M30.041 0C31.6942 2.41143e-05 32.862 0.351135 33.5439 1.05371C34.2466 1.75633 34.5976 2.68653 34.5977 3.84375V9.54785C34.5977 10.7051 34.2465 11.6352 33.5439 12.3379C32.862 13.0405 31.6943 13.3916 30.041 13.3916H26.3779V19.9023H20.9531V0H30.041ZM26.3779 9.5166H28.3975C28.6661 9.5166 28.8633 9.46564 28.9873 9.3623C29.1113 9.23831 29.1729 9.06225 29.1729 8.83496V4.55664C29.1728 4.32952 29.1112 4.16383 28.9873 4.06055C28.8633 3.93655 28.6661 3.875 28.3975 3.875H26.3779V9.5166Z" fill="url(#paint2_linear_10928_7490)"/>
<path d="M30.041 0L30.041 -1H30.041V0ZM33.5439 1.05371L32.8264 1.75023L32.8316 1.75556L32.8368 1.76082L33.5439 1.05371ZM34.5977 3.84375H35.5977V3.84371L34.5977 3.84375ZM33.5439 12.3379L32.8368 11.6308L32.8315 11.6361L32.8264 11.6414L33.5439 12.3379ZM30.041 13.3916V14.3916H30.041L30.041 13.3916ZM26.3779 13.3916V12.3916H25.3779V13.3916H26.3779ZM26.3779 19.9023V20.9023H27.3779V19.9023H26.3779ZM20.9531 19.9023H19.9531V20.9023H20.9531V19.9023ZM20.9531 0V-1H19.9531V0H20.9531ZM26.3779 9.5166H25.3779V10.5166H26.3779V9.5166ZM28.9873 9.3623L29.6275 10.1305L29.6624 10.1014L29.6945 10.0693L28.9873 9.3623ZM29.1729 4.55664H30.1729V4.55635L29.1729 4.55664ZM28.9873 4.06055L28.2802 4.76765L28.3122 4.79968L28.347 4.82868L28.9873 4.06055ZM26.3779 3.875V2.875H25.3779V3.875H26.3779ZM30.041 0L30.041 1C31.5997 1.00002 32.4275 1.33929 32.8264 1.75023L33.5439 1.05371L34.2615 0.357195C33.2964 -0.637021 31.7886 -0.999974 30.041 -1L30.041 0ZM33.5439 1.05371L32.8368 1.76082C33.3208 2.24483 33.5976 2.90433 33.5977 3.84379L34.5977 3.84375L35.5977 3.84371C35.5976 2.46874 35.1723 1.26783 34.2511 0.346604L33.5439 1.05371ZM34.5977 3.84375H33.5977V9.54785H34.5977H35.5977V3.84375H34.5977ZM34.5977 9.54785H33.5977C33.5977 10.4873 33.3209 11.1467 32.8368 11.6308L33.5439 12.3379L34.2511 13.045C35.1722 12.1238 35.5977 10.923 35.5977 9.54785H34.5977ZM33.5439 12.3379L32.8264 11.6414C32.4275 12.0524 31.5999 12.3916 30.041 12.3916L30.041 13.3916L30.041 14.3916C31.7886 14.3916 33.2964 14.0287 34.2615 13.0344L33.5439 12.3379ZM30.041 13.3916V12.3916H26.3779V13.3916V14.3916H30.041V13.3916ZM26.3779 13.3916H25.3779V19.9023H26.3779H27.3779V13.3916H26.3779ZM26.3779 19.9023V18.9023H20.9531V19.9023V20.9023H26.3779V19.9023ZM20.9531 19.9023H21.9531V0H20.9531H19.9531V19.9023H20.9531ZM20.9531 0V1H30.041V0V-1H20.9531V0ZM26.3779 9.5166V10.5166H28.3975V9.5166V8.5166H26.3779V9.5166ZM28.3975 9.5166V10.5166C28.7528 10.5166 29.2362 10.4566 29.6275 10.1305L28.9873 9.3623L28.3471 8.59408C28.4242 8.52985 28.4872 8.51241 28.4943 8.51057C28.4987 8.50942 28.4935 8.51112 28.4764 8.513C28.4593 8.51487 28.4335 8.5166 28.3975 8.5166V9.5166ZM28.9873 9.3623L29.6945 10.0693C30.0581 9.70562 30.1729 9.24325 30.1729 8.83496H29.1729H28.1729C28.1729 8.86004 28.1693 8.84522 28.1831 8.80588C28.1985 8.76216 28.2292 8.70622 28.2801 8.65533L28.9873 9.3623ZM29.1729 8.83496H30.1729V4.55664H29.1729H28.1729V8.83496H29.1729ZM29.1729 4.55664L30.1729 4.55635C30.1727 4.16154 30.0627 3.65507 29.6276 3.29242L28.9873 4.06055L28.347 4.82868C28.2625 4.75826 28.2135 4.67559 28.1897 4.61198C28.1687 4.5557 28.1728 4.52976 28.1729 4.55693L29.1729 4.55664ZM28.9873 4.06055L29.6944 3.35344C29.3023 2.96136 28.7902 2.875 28.3975 2.875V3.875V4.875C28.4596 4.875 28.4702 4.88261 28.4471 4.87536C28.4195 4.8667 28.3511 4.83859 28.2802 4.76765L28.9873 4.06055ZM28.3975 3.875V2.875H26.3779V3.875V4.875H28.3975V3.875ZM26.3779 3.875H25.3779V9.5166H26.3779H27.3779V3.875H26.3779Z" fill="url(#paint3_linear_10928_7490)" mask="url(#path-3-inside-2_10928_7490)"/>
<path d="M9.94043 0.5H14.1875C15.7932 0.500063 16.7906 0.845567 17.3311 1.40234C17.9062 1.99495 18.2128 2.79125 18.2129 3.84375V5.73145H13.7881V4.55664C13.788 4.25715 13.7064 3.93872 13.4541 3.70801L13.4561 3.70703C13.4475 3.69851 13.4374 3.69172 13.4287 3.68359C13.4263 3.68158 13.4243 3.67875 13.4219 3.67676H13.4209C13.1669 3.44511 12.8306 3.375 12.5127 3.375H11.6143C11.3237 3.375 11.017 3.43246 10.7725 3.61914L10.7051 3.67676C10.4262 3.90915 10.3389 4.24424 10.3389 4.55664V7.50195C10.3389 7.82089 10.4286 8.13956 10.6719 8.38281L10.6875 8.39844L10.7051 8.41309C10.9618 8.627 11.3003 8.68359 11.6143 8.68359H14.5283C16.1009 8.68363 17.0175 9.02251 17.4697 9.53711L17.4746 9.54297C17.9911 10.1111 18.2754 10.8999 18.2754 11.9658V16.0576C18.2754 17.1102 17.9688 17.9074 17.3936 18.5C16.8531 19.0569 15.8551 19.4023 14.249 19.4023H10.0332C8.42918 19.4023 7.41556 19.0572 6.85254 18.4941H6.85156C6.28012 17.9021 5.97559 17.1067 5.97559 16.0576V14.1709H10.4014V15.3447C10.4014 15.6636 10.4902 15.9823 10.7334 16.2256L10.75 16.2412L10.7666 16.2559C11.0233 16.4697 11.3619 16.5273 11.6758 16.5273H12.5752C12.8891 16.5273 13.2277 16.4698 13.4844 16.2559L13.502 16.2412L13.5176 16.2256C13.7608 15.9823 13.8496 15.6637 13.8496 15.3447V12.5244C13.8496 12.2249 13.7689 11.9056 13.5166 11.6748H13.5176C13.5149 11.6721 13.5115 11.6697 13.5088 11.667C13.5005 11.6595 13.4931 11.6508 13.4844 11.6436L13.4834 11.6445C13.2294 11.4124 12.8934 11.3418 12.5752 11.3418H9.59863C8.0391 11.3417 7.12767 10.9889 6.67188 10.4443H6.67285C6.18132 9.82991 5.91406 9.00831 5.91406 7.93555V3.84375C5.91411 2.79127 6.22075 1.99494 6.7959 1.40234C7.33638 0.845484 8.33439 0.5 9.94043 0.5Z" fill="url(#paint4_linear_10928_7490)" stroke="url(#paint5_linear_10928_7490)"/>
</g>
<defs>
<filter id="filter0_d_10928_7490" x="-0.000204563" y="-5.41427" width="53.8949" height="36.1491" filterUnits="userSpaceOnUse" color-interpolation-filters="sRGB">
<feFlood flood-opacity="0" result="BackgroundImageFix"/>
<feColorMatrix in="SourceAlpha" type="matrix" values="0 0 0 0 0 0 0 0 0 0 0 0 0 0 0 0 0 0 127 0" result="hardAlpha"/>
<feOffset dy="5.41427"/>
<feGaussianBlur stdDeviation="2.70713"/>
<feComposite in2="hardAlpha" operator="out"/>
<feColorMatrix type="matrix" values="0 0 0 0 0 0 0 0 0 0 0 0 0 0 0 0 0 0 0.25 0"/>
<feBlend mode="normal" in2="BackgroundImageFix" result="effect1_dropShadow_10928_7490"/>
<feBlend mode="normal" in="SourceGraphic" in2="effect1_dropShadow_10928_7490" result="shape"/>
</filter>
<linearGradient id="paint0_linear_10928_7490" x1="34.7838" y1="21.8883" x2="54.5372" y2="10.579" gradientUnits="userSpaceOnUse">
<stop stop-color="white" stop-opacity="0.2"/>
<stop offset="1" stop-color="white" stop-opacity="0.5"/>
</linearGradient>
<linearGradient id="paint1_linear_10928_7490" x1="47.2895" y1="21.8883" x2="30.0757" y2="9.58165" gradientUnits="userSpaceOnUse">
<stop stop-color="white" stop-opacity="0"/>
<stop offset="1" stop-color="white"/>
</linearGradient>
<linearGradient id="paint2_linear_10928_7490" x1="18.9064" y1="21.8926" x2="39.9183" y2="8.11368" gradientUnits="userSpaceOnUse">
<stop stop-color="white" stop-opacity="0.2"/>
<stop offset="1" stop-color="white" stop-opacity="0.5"/>
</linearGradient>
<linearGradient id="paint3_linear_10928_7490" x1="33.2332" y1="21.8926" x2="15.3949" y2="7.28515" gradientUnits="userSpaceOnUse">
<stop stop-color="white" stop-opacity="0"/>
<stop offset="1" stop-color="white"/>
</linearGradient>
<linearGradient id="paint4_linear_10928_7490" x1="3.40991" y1="21.8922" x2="24.2426" y2="8.51445" gradientUnits="userSpaceOnUse">
<stop stop-color="white" stop-opacity="0.2"/>
<stop offset="1" stop-color="white" stop-opacity="0.5"/>
</linearGradient>
<linearGradient id="paint5_linear_10928_7490" x1="17.439" y1="21.8922" x2="-0.321629" y2="7.65037" gradientUnits="userSpaceOnUse">
<stop stop-color="white" stop-opacity="0"/>
<stop offset="1" stop-color="white"/>
</linearGradient>
</defs>
</svg>
